<?xml version="1.0" encoding="utf-8"?>
<!-- Generator: Adobe Illustrator 16.0.0, SVG Export Plug-In . SVG Version: 6.00 Build 0)  -->
<!DOCTYPE svg PUBLIC "-//W3C//DTD SVG 1.1//EN" "http://www.w3.org/Graphics/SVG/1.1/DTD/svg11.dtd">
<svg version="1.1" id="Layer_1" xmlns="http://www.w3.org/2000/svg" xmlns:xlink="http://www.w3.org/1999/xlink" x="0px" y="0px"
	 width="198.41602px" height="80px" viewBox="0 0 198.41602 80" enable-background="new 0 0 198.41602 80" xml:space="preserve">
<g>
	<g>
		<path fill="#FFFFFF" d="M170.4248,65.00684h-4.85645c-1.36621,0-2.59766-0.5127-3.56836-1.48438
			c-0.9668-0.96777-1.47852-2.19824-1.47852-3.56152V3.87549c0-1.09619,0.88867-1.98438,1.98633-1.98438
			c1.09668,0,1.98242,0.88818,1.98242,1.98438v56.08545c0,0.30957,0.09375,0.53125,0.31934,0.75684
			c0.22852,0.23047,0.44043,0.32031,0.75879,0.32031h4.85645c1.09668,0,1.98438,0.88867,1.98438,1.98438
			C172.40918,64.11914,171.52148,65.00684,170.4248,65.00684z"/>
	</g>
	<g>
		<path fill="#FFFFFF" d="M7.18018,53.03809c-1.09473,0-1.98438-0.88867-1.98438-1.98438V19.84619
			c0-1.0957,0.88965-1.98438,1.98438-1.98438c1.0957,0,1.98096,0.88867,1.98096,1.98438v31.20752
			C9.16113,52.14941,8.27588,53.03809,7.18018,53.03809z"/>
	</g>
	<g>
		<path fill="#FFFFFF" d="M170.67188,71.34863c-1.09277,0-1.98145-0.88867-1.98145-1.98438V3.87549
			c0-1.09619,0.88867-1.98438,1.98145-1.98438c1.09766,0,1.9873,0.88818,1.9873,1.98438v65.48877
			C172.65918,70.45996,171.76953,71.34863,170.67188,71.34863z"/>
	</g>
	<g>
		<path fill="#FFFFFF" d="M175.53223,43.99902h-4.86035c-1.09277,0-1.98145-0.89062-1.98145-1.98438
			c0-1.09668,0.88867-1.98486,1.98145-1.98486h4.86035c0.31152,0,0.5293-0.09326,0.75586-0.31738
			c0.22852-0.229,0.31934-0.44727,0.31934-0.76074V3.87549c0-1.09619,0.8877-1.98438,1.98242-1.98438
			c1.09766,0,1.98535,0.88818,1.98535,1.98438v35.07617c0,1.36426-0.51172,2.59619-1.48242,3.56494
			C178.12598,43.4834,176.89453,43.99902,175.53223,43.99902z"/>
	</g>
	<g>
		<g>
			<path fill="#F6921E" d="M170.67188,77.71094c-1.36133,0-2.5957-0.51367-3.5625-1.48438
				c-0.9707-0.96387-1.48438-2.19824-1.48438-3.56055v-0.23926c0-1.36426,0.51367-2.5957,1.48438-3.56543
				c0.96973-0.96973,2.20117-1.48145,3.5625-1.48145h0.36035c1.3623,0,2.59375,0.51172,3.56348,1.48145
				c0.96973,0.9707,1.47949,2.2041,1.47949,3.56543v0.23926c0,1.3623-0.50977,2.59375-1.47949,3.56348
				c-0.9668,0.96777-2.19824,1.48145-3.56348,1.48145H170.67188z"/>
		</g>
		<g>
			<path fill="#FFFFFF" d="M171.03223,69.36426c0.83789,0,1.56055,0.30078,2.16113,0.90039
				c0.59863,0.60254,0.89941,1.31836,0.89941,2.16211v0.23926c0,0.83887-0.30078,1.55859-0.89941,2.16016
				c-0.60059,0.59961-1.32324,0.90039-2.16113,0.90039h-0.36035c-0.8418,0-1.55957-0.30078-2.15918-0.90039
				c-0.60059-0.60156-0.90039-1.32129-0.90039-2.16016v-0.23926c0-0.84375,0.2998-1.55957,0.90039-2.16211
				c0.59961-0.59961,1.31738-0.90039,2.15918-0.90039H171.03223 M171.03223,65.39551h-0.36035
				c-1.89941,0-3.61426,0.71387-4.96387,2.0625c-1.35156,1.34961-2.06348,3.06836-2.06348,4.96875v0.23926
				c0,1.90137,0.71484,3.62109,2.06348,4.96973c1.3457,1.3457,3.06445,2.05957,4.96387,2.05957h0.36035
				c1.90137,0,3.61914-0.71387,4.96777-2.06543c1.34766-1.3457,2.06152-3.06543,2.06152-4.96387v-0.23926
				c0-1.89844-0.71387-3.61523-2.05859-4.96582C174.64648,66.10938,172.93359,65.39551,171.03223,65.39551L171.03223,65.39551z"/>
		</g>
	</g>
	<g>
		<g>
			<g>
				<path fill="#F6921E" d="M7.0293,12.31543c-1.3623,0-2.59375-0.51172-3.56348-1.48145
					C2.49463,9.86768,1.98291,8.63281,1.98291,7.26904V7.0293c0-1.3623,0.51172-2.59668,1.48584-3.56348
					c0.9668-0.96826,2.19824-1.48145,3.56055-1.48145h0.3584c1.36279,0,2.59424,0.51318,3.56396,1.48145
					c0.9707,0.96973,1.48291,2.20117,1.48291,3.56348v0.23975c0,1.36377-0.51221,2.59521-1.48291,3.56494
					c-0.9668,0.96973-2.20117,1.48145-3.56396,1.48145H7.0293z"/>
			</g>
			<g>
				<path fill="#FFFFFF" d="M7.3877,3.96875c0.84033,0,1.56152,0.30078,2.16211,0.90039
					c0.59912,0.60205,0.89893,1.32178,0.89893,2.16016v0.23975c0,0.84277-0.2998,1.5625-0.89893,2.16162
					c-0.60059,0.59961-1.32178,0.90039-2.16211,0.90039H7.0293c-0.83984,0-1.5625-0.30078-2.15869-0.90039
					C4.26807,8.83154,3.96875,8.11182,3.96875,7.26904V7.0293c0-0.83838,0.29932-1.55811,0.90186-2.16016
					C5.4668,4.26953,6.18945,3.96875,7.0293,3.96875H7.3877 M7.3877,0H7.0293C5.13086,0,3.41309,0.71387,2.06396,2.0625
					C0.71533,3.40869,0,5.12793,0,7.0293v0.23975c0,1.90283,0.71533,3.62207,2.06396,4.97119
					c1.34912,1.34619,3.06689,2.05957,4.96533,2.05957h0.3584c1.90186,0,3.61963-0.71338,4.96826-2.0625
					c1.34912-1.34912,2.06152-3.06543,2.06152-4.96826V7.0293c0-1.89844-0.7124-3.61768-2.06152-4.9668
					C11.00439,0.71387,9.28955,0,7.3877,0L7.3877,0z"/>
			</g>
		</g>
		<g>
			<path fill="#FFFFFF" d="M44.1958,77.71094H23.50342c-1.84131,0-3.42236-0.64551-4.6958-1.9209
				c-1.25439-1.25293-1.91846-2.87891-1.91846-4.69434V8.61182c0-1.82764,0.63721-3.41748,1.89258-4.72168
				c1.25732-1.30664,2.88916-1.99902,4.72168-1.99902H44.1958c12.00098,0,21.70996,4.104,28.86768,12.20117
				c3.1709,3.53174,5.5752,7.62256,7.13037,12.14355c1.5415,4.48047,2.32129,9.04395,2.32129,13.56543
				c0,4.52295-0.77979,9.08545-2.31836,13.56494c-1.55811,4.52246-3.9624,8.61523-7.14404,12.15625
				C65.91064,73.60645,56.19678,77.71094,44.1958,77.71094z M30.22559,73.74219H44.1958
				c10.96484,0,19.43701-3.55273,25.89551-10.85938c2.83496-3.15723,4.96826-6.79004,6.35205-10.80859
				c1.39551-4.06152,2.10352-8.19043,2.10352-12.27295c0-4.08008-0.70801-8.21143-2.10352-12.27344
				c-1.38379-4.01709-3.51709-7.64844-6.34277-10.79492C63.62939,9.4126,55.16064,5.85986,44.1958,5.85986H30.22559V73.74219z
				 M23.50342,5.85986c-0.76807,0-1.34131,0.24219-1.86377,0.78271c-0.5332,0.55566-0.78467,1.18018-0.78467,1.96924V71.0957
				c0,0.77344,0.24268,1.37305,0.75732,1.8877c0.5166,0.51855,1.11719,0.75879,1.89111,0.75879h2.75342V5.85986H23.50342z"/>
		</g>
		<g>
			<path fill="#FFFFFF" d="M92.11768,78.22461c-1.8125,0-3.43555-0.66211-4.69287-1.91699
				c-1.25684-1.25488-1.91943-2.88184-1.91943-4.69824V8.61182c0-1.82764,0.63525-3.41602,1.89111-4.72168
				c1.26025-1.30664,2.89355-1.99902,4.72119-1.99902h23.98535c9.82959,0,17.42529,2.16357,22.57275,6.42725
				c4.92334,4.16553,7.41211,9.69727,7.41211,16.45557c0,4.34961-1.23486,8.45361-3.66943,12.19678
				c-1.69824,2.61377-4.00781,4.75488-6.89355,6.39551c3.35693,2.08105,5.92139,5.44238,7.65576,10.04199
				c1.51904,4.12793,2.28955,8.65137,2.28955,13.46387v8.85449c0,1.09668-0.88818,1.98438-1.98584,1.98438
				c-1.09717,0-1.98438-0.8877-1.98438-1.98438v-8.85449c0-4.3418-0.68457-8.40527-2.04004-12.0791
				c-1.96924-5.22656-5.02979-8.32812-9.34766-9.4707l-6.27539-1.6582l6.12793-2.13477
				c4.13867-1.44238,7.12695-3.64014,9.12939-6.7207c2.00537-3.08936,3.0249-6.46484,3.0249-10.03467
				c0-5.61426-1.96045-10.00146-5.99072-13.41309c-4.39941-3.64502-11.14404-5.50098-20.02539-5.50098H98.83691v65.74951
				c0,1.83203-0.68799,3.4668-1.99463,4.72461C95.53223,77.59082,93.94385,78.22461,92.11768,78.22461z M92.11768,5.85986
				c-0.76611,0-1.34131,0.24219-1.86377,0.78271c-0.53271,0.55566-0.78125,1.18018-0.78125,1.96924v62.99756
				c0,0.77344,0.23926,1.37402,0.75439,1.88867c0.52051,0.51855,1.12012,0.75977,1.89062,0.75977
				c0.78906,0,1.41553-0.25,1.97412-0.78613c0.53857-0.51855,0.77686-1.09375,0.77686-1.8623V5.85986H92.11768z"/>
		</g>
		<g>
			<path fill="#FFFFFF" d="M196.43066,5.85986h-51.26123c-1.09766,0-1.98291-0.88867-1.98291-1.98438
				c0-1.09619,0.88525-1.98438,1.98291-1.98438h51.26123c1.09766,0,1.98535,0.88818,1.98535,1.98438
				C198.41602,4.97119,197.52832,5.85986,196.43066,5.85986z"/>
		</g>
	</g>
</g>
</svg>
