<?xml version="1.0" encoding="utf-8"?>
<!-- Generator: Adobe Illustrator 16.0.4, SVG Export Plug-In . SVG Version: 6.00 Build 0)  -->
<!DOCTYPE svg PUBLIC "-//W3C//DTD SVG 1.1//EN" "http://www.w3.org/Graphics/SVG/1.1/DTD/svg11.dtd">
<svg version="1.1" id="Layer_1" xmlns="http://www.w3.org/2000/svg" xmlns:xlink="http://www.w3.org/1999/xlink" x="0px" y="0px"
	 width="299.0586px" height="634.2822px" viewBox="0 0 299.0586 634.2822" enable-background="new 0 0 299.0586 634.2822"
	 xml:space="preserve">
<path fill="#343433" d="M250.6963,0H48.3657C21.6533,0,0,21.5166,0,48.0522v538.1812c0,26.5361,21.6533,48.0488,48.3657,48.0488
	h202.3306c26.709,0,48.3623-21.5127,48.3623-48.0488V48.0522C299.0586,21.5166,277.4053,0,250.6963,0z M149.9336,615.8643
	c-15.5825,0-28.2139-12.5488-28.2139-28.0303s12.6313-28.0303,28.2139-28.0303c15.582,0,28.2139,12.5488,28.2139,28.0303
	S165.5156,615.8643,149.9336,615.8643z M276.4902,539.7822H21.7632V91.2988h254.7271V539.7822z"/>
</svg>
